<svg viewBox="0 0 100 85" fill="none" xmlns="http://www.w3.org/2000/svg">
<path d="M15.0396 65.2483C14.6915 65.2483 14.4092 65.012 14.4092 64.7206V34.5478C14.4092 34.2565 14.6915 34.0201 15.0396 34.0201H24.9881C25.3362 34.0201 25.6185 34.2565 25.6185 34.5478V64.7206C25.6185 65.012 25.3362 65.2483 24.9881 65.2483H15.0396Z" fill="white"/>
<path d="M24.9876 33.4929H15.0392C14.3429 33.4929 13.7783 33.965 13.7783 34.5477V64.7205C13.7783 65.3032 14.3429 65.7759 15.0392 65.7759H24.9876C25.684 65.7759 26.2485 65.3032 26.2485 64.7205V34.5477C26.2485 33.965 25.684 33.4929 24.9876 33.4929ZM24.9876 34.5477V64.7205H15.0392V34.5477H24.9876Z" fill="white"/>
<path d="M44.972 65.2483C44.6238 65.2483 44.3413 65.012 44.3413 64.7206V34.5478C44.3413 34.2565 44.6238 34.0201 44.972 34.0201H54.9198C55.268 34.0201 55.5505 34.2565 55.5505 34.5478V64.7206C55.5505 65.012 55.268 65.2483 54.9198 65.2483H44.972Z" fill="white"/>
<path d="M54.9198 33.4929H44.9714C44.2756 33.4929 43.7107 33.965 43.7107 34.5477V64.7205C43.7107 65.3032 44.2756 65.7759 44.9714 65.7759H54.9198C55.6163 65.7759 56.1806 65.3032 56.1806 64.7205V34.5477C56.1806 33.965 55.6163 33.4929 54.9198 33.4929ZM54.9198 34.5477V64.7205H44.9714V34.5477H54.9198Z" fill="white"/>
<path d="M74.9039 65.2483C74.5557 65.2483 74.2732 65.012 74.2732 64.7206V34.5478C74.2732 34.2565 74.5557 34.0201 74.9039 34.0201H84.8523C85.2005 34.0201 85.4824 34.2565 85.4824 34.5478V64.7206C85.4824 65.012 85.2005 65.2483 84.8523 65.2483H74.9039Z" fill="white"/>
<path d="M84.852 33.4929H74.9036C74.2072 33.4929 73.6428 33.965 73.6428 34.5477V64.7205C73.6428 65.3032 74.2072 65.7759 74.9036 65.7759H84.852C85.5485 65.7759 86.1128 65.3032 86.1128 64.7205V34.5477C86.1128 33.965 85.5485 33.4929 84.852 33.4929ZM84.852 34.5477V64.7205H74.9036V34.5477H84.852Z" fill="white"/>
<path d="M20.5054 34.5477V64.7205H24.9881V34.5477H20.5054Z" fill="white"/>
<path d="M50.873 22.4979V52.6707H55.1758V22.4979H50.873Z" fill="white"/>
<path d="M80.4292 34.5477V64.7205H84.8525V34.5477H80.4292Z" fill="white"/>
<path d="M12.0916 35.075C11.7435 35.075 11.4612 34.8391 11.4612 34.5478V29.5383C11.4612 29.247 11.7435 29.0107 12.0916 29.0107H27.9354C28.2835 29.0107 28.5658 29.247 28.5658 29.5383V34.5478C28.5658 34.8391 28.2835 35.075 27.9354 35.075H12.0916Z" fill="white"/>
<path d="M27.9355 28.4834H12.0917C11.3954 28.4834 10.8308 28.9555 10.8308 29.5382V34.5477C10.8308 35.1304 11.3954 35.6025 12.0917 35.6025H27.9355C28.6318 35.6025 29.1964 35.1304 29.1964 34.5477V29.5382C29.1964 28.9555 28.6318 28.4834 27.9355 28.4834ZM27.9355 29.5382V34.5477H12.0917V29.5382H27.9355Z" fill="white"/>
<path d="M12.0916 70.2576C11.7435 70.2576 11.4612 70.0212 11.4612 69.7299V64.7204C11.4612 64.4296 11.7435 64.1933 12.0916 64.1933H27.9354C28.2835 64.1933 28.5658 64.4296 28.5658 64.7204V69.7299C28.5658 70.0212 28.2835 70.2576 27.9354 70.2576H12.0916Z" fill="white"/>
<path d="M27.9355 63.6657H12.0917C11.3954 63.6657 10.8308 64.1379 10.8308 64.7206V69.73C10.8308 70.3127 11.3954 70.7854 12.0917 70.7854H27.9355C28.6318 70.7854 29.1964 70.3127 29.1964 69.73V64.7206C29.1964 64.1379 28.6318 63.6657 27.9355 63.6657ZM27.9355 64.7206V69.73H12.0917V64.7206H27.9355Z" fill="white"/>
<path d="M42.0243 35.075C41.6761 35.075 41.3938 34.8391 41.3938 34.5478V29.5383C41.3938 29.247 41.6761 29.0107 42.0243 29.0107H57.8677C58.2159 29.0107 58.4984 29.247 58.4984 29.5383V34.5478C58.4984 34.8391 58.2159 35.075 57.8677 35.075H42.0243Z" fill="white"/>
<path d="M57.8675 28.4834H42.0241C41.3276 28.4834 40.7632 28.9555 40.7632 29.5382V34.5477C40.7632 35.1304 41.3276 35.6025 42.0241 35.6025H57.8675C58.5639 35.6025 59.1289 35.1304 59.1289 34.5477V29.5382C59.1289 28.9555 58.5639 28.4834 57.8675 28.4834ZM57.8675 29.5382V34.5477H42.0241V29.5382H57.8675Z" fill="white"/>
<path d="M42.0243 70.2576C41.6761 70.2576 41.3938 70.0212 41.3938 69.7299V64.7204C41.3938 64.4296 41.6761 64.1933 42.0243 64.1933H57.8677C58.2159 64.1933 58.4984 64.4296 58.4984 64.7204V69.7299C58.4984 70.0212 58.2159 70.2576 57.8677 70.2576H42.0243Z" fill="white"/>
<path d="M57.8675 63.6657H42.0241C41.3276 63.6657 40.7632 64.1379 40.7632 64.7206V69.73C40.7632 70.3127 41.3276 70.7854 42.0241 70.7854H57.8675C58.5639 70.7854 59.1289 70.3127 59.1289 69.73V64.7206C59.1289 64.1379 58.5639 63.6657 57.8675 63.6657ZM57.8675 64.7206V69.73H42.0241V64.7206H57.8675Z" fill="white"/>
<path d="M71.9556 35.075C71.6074 35.075 71.325 34.8391 71.325 34.5478V29.5383C71.325 29.247 71.6074 29.0107 71.9556 29.0107H87.7994C88.1476 29.0107 88.4294 29.247 88.4294 29.5383V34.5478C88.4294 34.8391 88.1476 35.075 87.7994 35.075H71.9556Z" fill="white"/>
<path d="M87.7998 28.4834H71.9561C71.2596 28.4834 70.6953 28.9555 70.6953 29.5382V34.5477C70.6953 35.1304 71.2596 35.6025 71.9561 35.6025H87.7998C88.4962 35.6025 89.0606 35.1304 89.0606 34.5477V29.5382C89.0606 28.9555 88.4962 28.4834 87.7998 28.4834ZM87.7998 29.5382V34.5477H71.9561V29.5382H87.7998Z" fill="white"/>
<path d="M71.9556 70.2576C71.6074 70.2576 71.325 70.0212 71.325 69.7299V64.7204C71.325 64.4296 71.6074 64.1933 71.9556 64.1933H87.7994C88.1476 64.1933 88.4294 64.4296 88.4294 64.7204V69.7299C88.4294 70.0212 88.1476 70.2576 87.7994 70.2576H71.9556Z" fill="white"/>
<path d="M87.7998 63.6657H71.9561C71.2596 63.6657 70.6953 64.1379 70.6953 64.7206V69.73C70.6953 70.3127 71.2596 70.7854 71.9561 70.7854H87.7998C88.4962 70.7854 89.0606 70.3127 89.0606 69.73V64.7206C89.0606 64.1379 88.4962 63.6657 87.7998 63.6657ZM87.7998 64.7206V69.73H71.9561V64.7206H87.7998Z" fill="white"/>
<path d="M12.0918 32.2459V34.5476H27.9356V32.2459H12.0918Z" fill="white"/>
<path d="M12.0918 67.5925V69.7297H27.9356V67.5925H12.0918Z" fill="white"/>
<path d="M42.0239 32.2459V34.5476H57.8675V32.2459H42.0239Z" fill="white"/>
<path d="M42.0239 67.5925V69.7297H57.8675V67.5925H42.0239Z" fill="white"/>
<path d="M71.9561 32.2459V34.5476H87.7998V32.2459H71.9561Z" fill="white"/>
<path d="M71.9561 67.5925V69.7297H87.7998V67.5925H71.9561Z" fill="white"/>
<path d="M5.91755 77.3135C5.56939 77.3135 5.28711 77.0771 5.28711 76.7858V70.6436C5.28711 70.3522 5.56939 70.1159 5.91755 70.1159H93.9741C94.3223 70.1159 94.6048 70.3522 94.6048 70.6436V76.7858C94.6048 77.0771 94.3223 77.3135 93.9741 77.3135H5.91755Z" fill="white"/>
<path d="M93.9738 69.5889H5.91731C5.22088 69.5889 4.65649 70.061 4.65649 70.6437V76.786C4.65649 77.3687 5.22088 77.8408 5.91731 77.8408H93.9738C94.6703 77.8408 95.2352 77.3687 95.2352 76.786V70.6437C95.2352 70.061 94.6703 69.5889 93.9738 69.5889ZM93.9738 70.6437V76.786H5.91731V70.6437H93.9738Z" fill="white"/>
<path d="M5.91724 73.8597V76.7859H93.9738V73.8597H5.91724Z" fill="white"/>
<path d="M1.43732 83.7954C1.08917 83.7954 0.806885 83.5596 0.806885 83.2682V76.7858C0.806885 76.4944 1.08917 76.2586 1.43732 76.2586H98.4547C98.8029 76.2586 99.0854 76.4944 99.0854 76.7858V83.2682C99.0854 83.5596 98.8029 83.7954 98.4547 83.7954H1.43732Z" fill="white"/>
<path d="M98.4545 75.731H1.43715C0.74084 75.731 0.17627 76.2032 0.17627 76.7859V83.2684C0.17627 83.8506 0.74084 84.3232 1.43715 84.3232H98.4545C99.1509 84.3232 99.7153 83.8506 99.7153 83.2684V76.7859C99.7153 76.2032 99.1509 75.731 98.4545 75.731ZM98.4545 76.7859V83.2684H1.43715V76.7859H98.4545Z" fill="white"/>
<path d="M1.43677 80.5033V83.2686H98.4542V80.5033H1.43677Z" fill="white"/>
<path d="M2.07569 29.0918C1.72754 29.0918 1.44531 28.8555 1.44531 28.5641V23.5598C1.44531 23.2684 1.72754 23.0321 2.07569 23.0321H97.8158C98.164 23.0321 98.4458 23.2684 98.4458 23.5598V28.5641C98.4458 28.8555 98.164 29.0918 97.8158 29.0918H2.07569Z" fill="white"/>
<path d="M97.8156 22.5053H2.07557C1.37933 22.5053 0.814697 22.9775 0.814697 23.5602V28.5645C0.814697 29.1472 1.37933 29.6199 2.07557 29.6199H97.8156C98.5121 29.6199 99.0764 29.1472 99.0764 28.5645V23.5602C99.0764 22.9775 98.5121 22.5053 97.8156 22.5053ZM97.8156 23.5602V28.5645H2.07557V23.5602H97.8156Z" fill="white"/>
<path d="M97.816 26.062H2.07593V28.5645H97.816V26.062Z" fill="white"/>
<path d="M5.69849 22.9656L49.9455 1.46904L94.193 22.9656H5.69849Z" fill="white"/>
<path d="M49.9456 0.858982L49.3125 1.16663L7.40675 21.5263L3.35742 23.4934H8.03987H91.8518H96.5345L92.485 21.5263L50.5793 1.16663L49.9456 0.858982ZM49.9456 2.07887L91.8518 22.4385H8.03987L49.9456 2.07887Z" fill="white"/>
<path d="M49.9458 2.0788L46.2883 3.85592L64.4636 12.6865C66.8987 13.8692 65.8954 16.9859 63.0799 16.9859H19.2629L8.04004 22.4385H91.852L49.9458 2.0788Z" fill="white"/>
</svg>
