<svg viewBox="0 0 108 79" fill="none" xmlns="http://www.w3.org/2000/svg">
<path d="M94.5757 72.7125H13.6105C9.4351 72.7125 6.03816 69.2181 6.03816 64.9226V39.7548H102.148V64.9226C102.148 69.2181 98.7511 72.7125 94.5757 72.7125ZM6.03816 32.8636H102.148V37.3578H6.03816V32.8636ZM13.6105 6.79689H94.5757C98.7511 6.79689 102.148 10.2916 102.148 14.587V16.6843H6.03816V14.587C6.03816 10.2916 9.4351 6.79689 13.6105 6.79689ZM94.5757 0.804672H13.6105C6.22341 0.804672 0.213379 6.98741 0.213379 14.587V64.9226C0.213379 72.5221 6.22341 78.7048 13.6105 78.7048H94.5757C101.963 78.7048 107.973 72.5221 107.973 64.9226V14.587C107.973 6.98741 101.963 0.804672 94.5757 0.804672Z" fill="white"/>
<path d="M34.8712 56.8329C33.6507 56.8329 32.5074 57.1705 31.5219 57.7572C30.5365 57.1705 29.3933 56.8329 28.1727 56.8329C26.5029 56.8329 24.9771 57.463 23.8041 58.5026C22.631 57.463 21.1053 56.8329 19.4355 56.8329C15.7359 56.8329 12.7368 59.9182 12.7368 63.7242C12.7368 67.53 15.7359 70.6152 19.4355 70.6152C21.1053 70.6152 22.631 69.9853 23.8041 68.9457C24.9771 69.9853 26.5029 70.6152 28.1727 70.6152C29.3933 70.6152 30.5365 70.2778 31.5219 69.6911C32.5074 70.2778 33.6507 70.6152 34.8712 70.6152C38.5708 70.6152 41.5698 67.53 41.5698 63.7242C41.5698 59.9182 38.5708 56.8329 34.8712 56.8329Z" fill="white"/>
</svg>
