<svg width="223" height="183" viewBox="0 0 223 183" fill="none" xmlns="http://www.w3.org/2000/svg">
<path fill-rule="evenodd" clip-rule="evenodd" d="M111.492 167.964C66.9438 167.964 28.3485 125.58 16.9396 111.738C28.3485 97.8951 66.8535 55.5111 111.492 55.5111C155.995 55.5111 194.59 97.8951 205.999 111.738C194.59 125.625 156.13 167.964 111.492 167.964ZM221.282 107.409C219.299 104.704 171.957 40.8573 111.492 40.8573C50.9835 40.8573 3.63969 104.704 1.65622 107.409C-0.239247 109.979 -0.239247 113.496 1.65622 116.066C3.63969 118.772 50.9835 182.618 111.492 182.618C171.957 182.618 219.299 118.772 221.282 116.066C223.178 113.496 223.178 109.979 221.282 107.409Z" fill="#17BF5F"/>
<path fill-rule="evenodd" clip-rule="evenodd" d="M111.492 141.091C95.3059 141.091 82.1392 127.925 82.1392 111.738C82.1392 95.5508 95.3059 82.4292 111.492 82.4292C127.635 82.4292 140.799 95.5508 140.799 111.738C140.799 127.925 127.635 141.091 111.492 141.091ZM111.492 67.7303C87.2344 67.7303 67.4854 87.4792 67.4854 111.738C67.4854 135.996 87.2344 155.745 111.492 155.745C135.749 155.745 155.453 135.996 155.453 111.738C155.453 87.4792 135.749 67.7303 111.492 67.7303Z" fill="#17BF5F"/>
<path fill-rule="evenodd" clip-rule="evenodd" d="M111.492 124.182C118.3 124.182 123.891 118.591 123.891 111.738C123.891 104.884 118.3 99.3394 111.492 99.3394C104.639 99.3394 99.0471 104.884 99.0471 111.738C99.0471 118.591 104.639 124.182 111.492 124.182Z" fill="white"/>
<path fill-rule="evenodd" clip-rule="evenodd" d="M108.606 0.278625C111.898 0.278625 114.558 2.93903 114.558 6.22902V29.8118C114.558 33.0567 111.898 35.7622 108.606 35.7622C105.316 35.7622 102.655 33.0567 102.655 29.8118V6.22902C102.655 2.93903 105.316 0.278625 108.606 0.278625Z" fill="white"/>
<path fill-rule="evenodd" clip-rule="evenodd" d="M160.232 12.4974C163.073 14.1198 164.066 17.7731 162.441 20.614L150.629 41.0377C149.006 43.8786 145.353 44.8715 142.512 43.2017C139.673 41.5792 138.68 37.926 140.303 35.0873L152.118 14.6614C153.74 11.8204 157.391 10.8276 160.232 12.4974Z" fill="white"/>
<path fill-rule="evenodd" clip-rule="evenodd" d="M56.9791 12.4974C54.1381 14.1198 53.1475 17.7731 54.815 20.614L66.5827 41.0377C68.2074 43.8786 71.9036 44.8715 74.7446 43.2017C77.5855 41.5792 78.531 37.926 76.9085 35.0873L65.1408 14.6614C63.4733 11.8204 59.82 10.8276 56.9791 12.4974Z" fill="white"/>
</svg>
