<svg width="20" height="20" viewBox="0 0 20 20" fill="none" xmlns="http://www.w3.org/2000/svg">
<g clip-path="url(#clip0_54_270)">
<path d="M19.4568 19.9999V19.999H19.4614V12.664C19.4614 9.07569 18.738 6.31152 14.8092 6.31152C12.9205 6.31152 11.6531 7.41819 11.1357 8.46736H11.081V6.64652H7.35596V19.999H11.2348V13.3874C11.2348 11.6465 11.5438 9.96319 13.5628 9.96319C15.5522 9.96319 15.5819 11.9499 15.5819 13.499V19.9999H19.4568Z" fill="#F2F2F2"/>
<path d="M1.03992 6.64795H4.92342V20.0004H1.03992V6.64795Z" fill="#F2F2F2"/>
<path d="M2.97996 0C1.73827 0 0.730713 1.07583 0.730713 2.40167C0.730713 3.7275 1.73827 4.82583 2.97996 4.82583C4.22165 4.82583 5.2292 3.7275 5.2292 2.40167C5.22842 1.07583 4.22087 0 2.97996 0V0Z" fill="#F2F2F2"/>
</g>
<defs>
<clipPath id="clip0_54_270">
<rect width="18.7307" height="20" fill="white" transform="translate(0.730713)"/>
</clipPath>
</defs>
</svg>
