<svg width="145" height="145" viewBox="0 0 145 145" fill="none" xmlns="http://www.w3.org/2000/svg">
<path fill-rule="evenodd" clip-rule="evenodd" d="M72.4998 15.9534C103.699 15.9534 129.009 41.2639 129.009 72.5004C129.009 103.736 103.699 129.009 72.4998 129.009C41.2635 129.009 15.9538 103.736 15.9538 72.5004C15.9538 41.2639 41.2635 15.9534 72.4998 15.9534ZM72.4998 0C112.534 0 145 32.4664 145 72.5004C145 112.534 112.534 145 72.4998 145C32.4666 145 0 112.534 0 72.5004C0 32.4664 32.4666 0 72.4998 0Z" fill="white"/>
<path fill-rule="evenodd" clip-rule="evenodd" d="M72.4998 37.8724C91.6219 37.8724 107.09 53.3781 107.09 72.5003C107.09 91.6224 91.6219 107.129 72.4998 107.129C53.3778 107.129 37.8714 91.6224 37.8714 72.5003C37.8714 53.3781 53.3778 37.8724 72.4998 37.8724ZM72.4998 28.1049C97.0261 28.1049 116.895 47.9739 116.895 72.5003C116.895 97.0272 97.0261 116.895 72.4998 116.895C47.9728 116.895 28.1053 97.0272 28.1053 72.5003C28.1053 47.9739 47.9728 28.1049 72.4998 28.1049Z" fill="white"/>
<path fill-rule="evenodd" clip-rule="evenodd" d="M72.4998 52.3728C83.6078 52.3728 92.6282 61.3922 92.6282 72.5005C92.6282 83.6083 83.6078 92.6289 72.4998 92.6289C61.3919 92.6289 52.3713 83.6083 52.3713 72.5005C52.3713 61.3922 61.3919 52.3728 72.4998 52.3728ZM72.4998 46.7055C86.7388 46.7055 98.2946 58.262 98.2946 72.5005C98.2946 86.7395 86.7388 98.2947 72.4998 98.2947C58.2608 98.2947 46.7056 86.7395 46.7056 72.5005C46.7056 58.262 58.2608 46.7055 72.4998 46.7055Z" fill="white"/>
<path fill-rule="evenodd" clip-rule="evenodd" d="M72.9844 67.5057C72.9844 67.4683 72.9471 67.431 72.9471 67.431L50.0602 44.5434V30.1924C50.0602 29.1123 49.6502 28.105 48.9048 27.3607L24.8624 3.0575C23.7069 1.90091 21.9922 1.56513 20.5011 2.16208C19.0103 2.79633 18.041 4.24952 18.041 5.88925V17.8916H5.74035C4.10024 17.8916 2.64648 18.8616 2.05009 20.3895C1.4164 21.88 1.75199 23.5962 2.90746 24.7509L27.2108 49.054C27.9562 49.8002 28.9627 50.2106 30.0437 50.2106H44.3945L67.2814 73.0968C67.2814 73.0968 67.3187 73.1341 67.3558 73.1341C68.9215 74.6252 71.2697 74.6623 72.8725 73.1341C74.5126 71.5313 74.4753 69.0711 72.9844 67.5057Z" fill="#17BF5F"/>
</svg>
