<svg viewBox="0 0 69 86" fill="none" xmlns="http://www.w3.org/2000/svg">
<path d="M58.6806 42.6436C58.6806 43.9322 57.3465 44.9766 55.7005 44.9766H13.413C11.7671 44.9766 10.4329 43.9322 10.4329 42.6436V31.8678C10.4329 31.0089 11.3222 30.3124 12.4193 30.3124H55.7005C57.3465 30.3124 58.6806 31.3567 58.6806 32.6453V42.6436ZM56.9779 57.6968C56.9779 58.2794 56.3743 58.7519 55.6294 58.7519H46.9732C46.2288 58.7519 45.6252 58.2794 45.6252 57.6968V53.5862C45.6252 53.0032 46.2288 52.5311 46.9732 52.5311H55.6294C56.3743 52.5311 56.9779 53.0032 56.9779 53.5862V57.6968ZM56.9779 67.4729C56.9779 68.0559 56.3743 68.5281 55.6294 68.5281H46.9732C46.2288 68.5281 45.6252 68.0559 45.6252 67.4729V63.3624C45.6252 62.7793 46.2288 62.3072 46.9732 62.3072H55.6294C56.3743 62.3072 56.9779 62.7793 56.9779 63.3624V67.4729ZM56.9779 77.2491C56.9779 77.8321 56.3743 78.3042 55.6294 78.3042H46.9732C46.2288 78.3042 45.6252 77.8321 45.6252 77.2491V73.1385C45.6252 72.5555 46.2288 72.0833 46.9732 72.0833H55.6294C56.3743 72.0833 56.9779 72.5555 56.9779 73.1385V77.2491ZM39.3814 57.6968C39.3814 58.2794 38.7778 58.7519 38.0335 58.7519H29.3773C28.6324 58.7519 28.0288 58.2794 28.0288 57.6968V53.5862C28.0288 53.0032 28.6324 52.5311 29.3773 52.5311H38.0335C38.7778 52.5311 39.3814 53.0032 39.3814 53.5862V57.6968ZM39.3814 67.4729C39.3814 68.0559 38.7778 68.5281 38.0335 68.5281H29.3773C28.6324 68.5281 28.0288 68.0559 28.0288 67.4729V63.3624C28.0288 62.7793 28.6324 62.3072 29.3773 62.3072H38.0335C38.7778 62.3072 39.3814 62.7793 39.3814 63.3624V67.4729ZM39.3814 77.2491C39.3814 77.8321 38.7778 78.3042 38.0335 78.3042H29.3773C28.6324 78.3042 28.0288 77.8321 28.0288 77.2491V73.1385C28.0288 72.5555 28.6324 72.0833 29.3773 72.0833H38.0335C38.7778 72.0833 39.3814 72.5555 39.3814 73.1385V77.2491ZM21.785 57.6968C21.785 58.2794 21.1814 58.7519 20.437 58.7519H11.7809C11.0365 58.7519 10.4329 58.2794 10.4329 57.6968V53.5862C10.4329 53.0032 11.0365 52.5311 11.7809 52.5311H20.437C21.1814 52.5311 21.785 53.0032 21.785 53.5862V57.6968ZM21.785 67.4729C21.785 68.0559 21.1814 68.5281 20.437 68.5281H11.7809C11.0365 68.5281 10.4329 68.0559 10.4329 67.4729V63.3624C10.4329 62.7793 11.0365 62.3072 11.7809 62.3072H20.437C21.1814 62.3072 21.785 62.7793 21.785 63.3624V67.4729ZM21.785 77.2491C21.785 77.8321 21.1814 78.3042 20.437 78.3042H11.7809C11.0365 78.3042 10.4329 77.8321 10.4329 77.2491V73.1385C10.4329 72.5555 11.0365 72.0833 11.7809 72.0833H20.437C21.1814 72.0833 21.785 72.5555 21.785 73.1385V77.2491ZM65.9176 22.7583H3.1954C1.54998 22.7583 0.21582 23.8026 0.21582 25.0912V83.0814C0.21582 84.3696 1.54998 85.4143 3.1954 85.4143H65.9176C67.5636 85.4143 68.8977 84.3696 68.8977 83.0814V25.0912C68.8977 23.8026 67.5636 22.7583 65.9176 22.7583Z" fill="white"/>
<path d="M14.9737 5.87201H26.8935V17.4258H60.9509V4.9832C60.9509 2.28339 58.1556 0.0951347 54.7071 0.0951347H14.4059C10.9574 0.0951347 8.16211 2.28339 8.16211 4.9832V17.4258H14.9737V5.87201Z" fill="white"/>
<path d="M24.4651 35.2839L23.1877 34.2838L21.2177 35.8267V33.6449H19.4116V35.8267L17.441 34.2838L16.1642 35.2839L18.1342 36.8264H15.3477V38.2402H18.1342L16.1642 39.7826L17.441 40.7827L19.4116 39.2399V41.4216H21.2177V39.2399L23.1877 40.7827L24.4651 39.7826L22.4946 38.2402H25.2811V36.8264H22.4946L24.4651 35.2839Z" fill="white"/>
<path d="M37.3396 35.2839L36.0622 34.2838L34.0922 35.8267V33.6449H32.2861V35.8267L30.3155 34.2838L29.0387 35.2839L31.0087 36.8264H28.2222V38.2402H31.0087L29.0387 39.7826L30.3155 40.7827L32.2861 39.2399V41.4216H34.0922V39.2399L36.0622 40.7827L37.3396 39.7826L35.3691 38.2402H38.1556V36.8264H35.3691L37.3396 35.2839Z" fill="white"/>
</svg>
