<svg width="212" height="174" viewBox="0 0 212 174" fill="none" xmlns="http://www.w3.org/2000/svg">
<path fill-rule="evenodd" clip-rule="evenodd" d="M106.022 159.794C63.5699 159.794 26.7908 119.405 15.9188 106.214C26.7908 93.0228 63.4839 52.6333 106.022 52.6333C148.43 52.6333 185.209 93.0228 196.081 106.214C185.209 119.448 148.559 159.794 106.022 159.794ZM210.645 102.089C208.755 99.5112 163.641 38.6692 106.022 38.6692C48.3607 38.6692 3.24483 99.5112 1.3547 102.089C-0.451567 104.538 -0.451567 107.89 1.3547 110.339C3.24483 112.917 48.3607 173.759 106.022 173.759C163.641 173.759 208.755 112.917 210.645 110.339C212.452 107.89 212.452 104.538 210.645 102.089Z" fill="white"/>
<path fill-rule="evenodd" clip-rule="evenodd" d="M106.022 134.186C90.5974 134.186 78.0503 121.639 78.0503 106.214C78.0503 90.7887 90.5974 78.2846 106.022 78.2846C121.405 78.2846 133.95 90.7887 133.95 106.214C133.95 121.639 121.405 134.186 106.022 134.186ZM106.022 64.2774C82.9057 64.2774 64.0861 83.097 64.0861 106.214C64.0861 129.33 82.9057 148.151 106.022 148.151C129.138 148.151 147.914 129.33 147.914 106.214C147.914 83.097 129.138 64.2774 106.022 64.2774Z" fill="white"/>
<path fill-rule="evenodd" clip-rule="evenodd" d="M106.022 118.073C112.509 118.073 117.838 112.745 117.838 106.214C117.838 99.6831 112.509 94.3991 106.022 94.3991C99.4911 94.3991 94.1626 99.6831 94.1626 106.214C94.1626 112.745 99.4911 118.073 106.022 118.073Z" fill="#17BF5F"/>
<path fill-rule="evenodd" clip-rule="evenodd" d="M103.271 -4.57764e-05C106.409 -4.57764e-05 108.944 2.53516 108.944 5.67033V28.1433C108.944 31.2355 106.409 33.8137 103.271 33.8137C100.136 33.8137 97.6008 31.2355 97.6008 28.1433V5.67033C97.6008 2.53516 100.136 -4.57764e-05 103.271 -4.57764e-05Z" fill="#17BF5F"/>
<path fill-rule="evenodd" clip-rule="evenodd" d="M152.469 11.6439C155.176 13.1899 156.122 16.6713 154.574 19.3785L143.317 38.8411C141.771 41.5483 138.289 42.4945 135.582 40.9032C132.877 39.3571 131.931 35.8758 133.477 33.1707L144.736 13.706C146.282 10.9987 149.761 10.0526 152.469 11.6439Z" fill="#17BF5F"/>
<path fill-rule="evenodd" clip-rule="evenodd" d="M54.0741 11.6439C51.3669 13.1899 50.4229 16.6713 52.0119 19.3785L63.2259 38.8411C64.7741 41.5483 68.2964 42.4945 71.0036 40.9032C73.7109 39.3571 74.6118 35.8758 73.0657 33.1707L61.8518 13.706C60.2627 10.9987 56.7814 10.0526 54.0741 11.6439Z" fill="#17BF5F"/>
</svg>
